:SAMPLES-PER-SECOND 24
:FULLY-SPECIFIED
:DEGREES
198
root  -15.3517 36.2009 3.04903 -20.1028 -82.8876 24.3305
RightUpLeg  -39.6807 -6.05382 -9.75838
RightLeg  46.0598 8.7978 9.35967
RightFoot  -6.27681 -0.233917 4.31389
RightToes  -1.46215e-006 3.27826e-006 1.63871e-007
Spine  8.06615 -9.22677 -15.3022
Spine1  5.47687 -14.1048 15.5874
HEad  -14.1739 15.5799 -9.69329
LeftShoulder1  0.603882 -0.636093 -6.93156
LeftArm  -126.517 -81.358 85.85
LeftForeArm  39.3121 1.4134 -13.731
LeftHand  -0.234882 0.767764 5.94283
RightShoulder  3.54424 6.1714 30.7332
RightArm  7.90218 -28.8666 27.6712
RightForeArm  -35.7155 55.3114 18.775
RightHand  0.226678 -6.69066 -21.0108
LeftUpLeg  14.2725 5.39699 11.9816
LeftLeg  12.4575 0.183857 0.345752
LeftFoot  -25.0018 -1.97469 -17.6121
LeftToes  1.24762e-006 1.46925e-008 1.29056e-009
199
root  -15.3372 36.3019 3.17393 -17.8444 -84.38 22.4269
RightUpLeg  -39.5923 -3.17147 -9.48549
RightLeg  44.4495 8.40104 8.44279
RightFoot  -5.56303 -0.256629 4.33695
RightToes  -1.46215e-006 3.27826e-006 1.63871e-007
Spine  6.95945 -9.05541 -14.4906
Spine1  6.66075 -13.9482 15.6372
HEad  -13.6357 14.5304 -8.35408
LeftShoulder1  0.510587 -0.241018 -5.87109
LeftArm  -135.178 -80.58 91.9457
LeftForeArm  40.3998 4.43186 -13.1354
LeftHand  -0.123075 3.1937 5.80166
RightShoulder  3.40135 6.05666 29.6597
RightArm  8.24126 -28.1425 29.2224
RightForeArm  -34.0511 49.5667 15.242
RightHand  -0.0174092 -5.34559 -20.2255
LeftUpLeg  13.4132 4.86936 11.465
LeftLeg  13.9834 2.14586 1.22818
LeftFoot  -24.8691 -2.14972 -19.2307
LeftToes  1.24762e-006 1.46925e-008 1.29056e-009
200
root  -15.2787 36.4103 3.33511 -31.8326 -86.719 36.0149
RightUpLeg  -39.1191 1.16706 -10.0038
RightLeg  42.7278 7.48465 7.06764
RightFoot  -5.19202 -0.293811 4.80804
RightToes  -1.46215e-006 3.27826e-006 1.63871e-007
Spine  6.82173 -8.84257 -13.738
Spine1  7.15659 -13.6494 15.0699
HEad  -13.1109 12.994 -7.4408
LeftShoulder1  0.540475 -0.519573 -5.64243
LeftArm  -121.783 -81.1047 77.6024
LeftForeArm  40.908 6.74047 -12.4821
LeftHand  -0.0985684 3.48553 5.10039
RightShoulder  3.35063 5.98058 29.406
RightArm  7.30997 -24.9266 31.0961
RightForeArm  -34.4002 40.6553 11.4042
RightHand  -0.158987 -4.50907 -19.684
LeftUpLeg  10.9697 1.8827 9.11709
LeftLeg  21.117 9.25946 4.30825
LeftFoot  -23.4608 -1.77145 -17.8798
LeftToes  1.24762e-006 1.46925e-008 1.29056e-009
201
root  -15.0954 36.4699 3.59423 -108.261 -88.0729 111.368
RightUpLeg  -38.542 6.70984 -10.8188
RightLeg  41.3247 6.29448 5.62142
RightFoot  -4.14831 -0.464838 6.91843
RightToes  -1.46215e-006 3.27826e-006 1.63871e-007
Spine  8.20314 -8.61425 -12.5652
Spine1  6.56327 -13.332 14.5479
HEad  -13.2385 10.0336 -6.52857
LeftShoulder1  0.614864 -0.793312 -6.62629
LeftArm  -86.1784 -80.0329 46.6971
LeftForeArm  38.5457 5.3713 -13.2537
LeftHand  -0.123613 2.97551 5.38537
RightShoulder  3.36559 5.97245 29.5986
RightArm  6.61944 -21.4755 31.9272
RightForeArm  -38.8202 31.6226 8.67894
RightHand  -0.291266 -3.68896 -19.2814
LeftUpLeg  5.63488 -1.42213 6.02641
LeftLeg  35.506 9.79488 7.61468
LeftFoot  -20.4627 -0.960279 -13.4908
LeftToes  1.24762e-006 1.46925e-008 1.29056e-009
202
root  -14.8495 36.3601 4.04398 -168.259 -84.9645 170.499
RightUpLeg  -38.8185 11.2335 -11.0992
RightLeg  40.3648 7.01326 6.07701
RightFoot  -2.78055 -0.620685 8.04565
RightToes  -1.46215e-006 3.27826e-006 1.63871e-007
Spine  8.54331 -8.4941 -11.071
Spine1  7.33925 -13.196 14.4889
HEad  -13.694 3.70177 -4.28941
LeftShoulder1  0.702552 -1.26861 -7.09743
LeftArm  -64.4758 -76.3382 26.4626
LeftForeArm  37.9136 6.95022 -12.8487
LeftHand  -0.0757694 4.33605 6.66686
RightShoulder  3.33376 5.92042 29.4537
RightArm  6.13665 -19.917 31.8967
RightForeArm  -42.0528 25.334 7.12946
RightHand  -0.40888 -2.95411 -19.1254
LeftUpLeg  -0.953015 -4.1561 3.39956
LeftLeg  48.3533 2.34629 3.1382
LeftFoot  -18.9449 -0.485332 -9.04728
LeftToes  1.24762e-006 1.46925e-008 1.29056e-009
203
root  -14.6384 36.2748 4.61527 -176.06 -80.0883 177.149
RightUpLeg  -38.7697 13.9722 -11.0665
RightLeg  39.1136 8.56385 7.14343
RightFoot  -2.24119 -0.682956 8.41315
RightToes  -1.46215e-006 3.27826e-006 1.63871e-007
Spine  8.39865 -8.51657 -10.5831
Spine1  8.77716 -13.4198 14.5354
HEad  -14.5569 -6.12765 -0.680276
LeftShoulder1  0.7916 -1.86838 -7.11255
LeftArm  -48.7967 -70.2537 11.8515
LeftForeArm  37.0502 7.7353 -12.3036
LeftHand  -0.0985264 4.32469 8.9388
RightShoulder  3.31274 5.84261 29.5262
RightArm  0.652263 -20.1769 30.3865
RightForeArm  -38.8411 19.9856 8.77629
RightHand  -0.449374 -2.67004 -18.8793
LeftUpLeg  -5.49412 -5.97744 0.865661
LeftLeg  53.5641 -1.70631 -1.95968
LeftFoot  -20.8562 -0.390699 -6.20544
LeftToes  1.24762e-006 1.46925e-008 1.29056e-009
204
root  -14.3676 36.2992 5.27119 -178.601 -74.9211 178.148
RightUpLeg  -37.9457 15.7806 -11.1111
RightLeg  37.3834 10.951 8.61261
RightFoot  -0.0660282 -1.09617 11.0676
RightToes  -1.46215e-006 3.27826e-006 1.63871e-007
Spine  8.92381 -8.89284 -11.1698
Spine1  9.70272 -14.1334 14.6924
HEad  -16.5838 -17.9945 4.04607
LeftShoulder1  0.874553 -2.32116 -7.42601
LeftArm  -35.0406 -61.8681 1.86677
LeftForeArm  34.1193 7.78583 -12.5605
LeftHand  -0.171418 3.83127 11.9361
RightShoulder  3.39993 5.84978 30.4488
RightArm  -11.9367 -21.4869 27.1725
RightForeArm  -28.9777 12.1409 12.4813
RightHand  -0.463003 -2.51833 -18.4456
LeftUpLeg  -7.94089 -8.69473 -1.65155
LeftLeg  54.0321 -1.49159 -1.70679
LeftFoot  -23.0517 -0.245131 -3.73823
LeftToes  1.24762e-006 1.46925e-008 1.29056e-009
205
root  -13.9983 36.4193 6.11188 179.174 -68.681 179.5
RightUpLeg  -37.0472 17.952 -10.7918
RightLeg  32.9464 16.0981 10.7537
RightFoot  3.95965 -1.59131 12.0545
RightToes  -1.46215e-006 3.27826e-006 1.63871e-007
Spine  8.49873 -9.4448 -11.8387
Spine1  11.6758 -15.1394 15.1864
HEad  -20.155 -29.3829 9.70737
LeftShoulder1  0.964647 -2.7074 -8.0054
LeftArm  -26.4448 -52.3122 -4.72414
LeftForeArm  30.9125 7.82486 -12.4985
LeftHand  -0.0754314 4.89008 14.6833
RightShoulder  3.46758 5.86522 31.1209
RightArm  -21.5164 -22.9352 24.4186
RightForeArm  -21.9632 4.03239 12.9151
RightHand  -0.390282 -2.92728 -18.0444
LeftUpLeg  -8.83562 -12.1885 -3.56642
LeftLeg  52.823 -1.28971 -1.32284
LeftFoot  -23.9217 9.6369e-005 -1.29814
LeftToes  1.24762e-006 1.46925e-008 1.29056e-009
206
root  -13.487 36.907 7.16731 176.814 -60.0414 -177.795
RightUpLeg  -34.1687 17.5183 -7.50486
RightLeg  21.8881 18.4683 6.80185
RightFoot  4.66645 -1.36429 9.91408
RightToes  -1.46215e-006 3.27826e-006 1.63871e-007
Spine  7.70427 -9.53935 -12.1054
Spine1  13.9522 -16.0501 16.6807
HEad  -22.6113 -37.9748 14.9079
LeftShoulder1  1.07459 -2.96306 -9.22119
LeftArm  -21.2326 -41.5836 -10.5729
LeftForeArm  27.6957 7.7698 -11.881
LeftHand  -0.0776097 4.942 16.9304
RightShoulder  3.42247 5.76607 31.0299
RightArm  -24.2476 -24.2845 22.2101
RightForeArm  -22.4205 -0.910138 11.188
RightHand  -0.189286 -4.23025 -17.9754
LeftUpLeg  -6.83167 -11.4867 -3.99075
LeftLeg  46.1721 -0.553018 -0.264131
LeftFoot  -25.2965 0.0641177 -0.713831
LeftToes  1.24762e-006 1.46925e-008 1.29056e-009
